<svg xmlns="http://www.w3.org/2000/svg" width="40" height="40" viewBox="0 0 40 40">
  <g id="soporte_btn" transform="translate(-16 -46)">
    <circle id="Ellipse_1" data-name="Ellipse 1" cx="20" cy="20" r="20" transform="translate(16 46)" fill="#fff"/>
    <g id="Assets_Íconos_32_Bold_Ayuda_044-avatar" data-name="Assets/Íconos/32/Bold/Ayuda/044-avatar" transform="translate(26 55)">
      <path id="Vector" d="M20,19.119A1.755,1.755,0,0,0,18.93,17.5l-4.982-2.12V14.14a4.648,4.648,0,0,0,.973-2.3h1.019A1.76,1.76,0,0,0,17.7,10.084V7.564a1.76,1.76,0,0,0-1.513-1.74C16.057,2.012,13.926,0,10,0S3.943,2.012,3.816,5.824A1.76,1.76,0,0,0,2.3,7.564v2.52a1.76,1.76,0,0,0,1.758,1.758H5.079a4.647,4.647,0,0,0,.973,2.3v1.242L1.07,17.5A1.755,1.755,0,0,0,0,19.119v.295A.586.586,0,0,0,.586,20H19.414A.586.586,0,0,0,20,19.414Zm-7.223-3.326A3.6,3.6,0,0,1,11.97,18.1a2.615,2.615,0,0,1-1.97.724,2.618,2.618,0,0,1-1.965-.718,3.574,3.574,0,0,1-.812-2.316c0-.008,0-.016,0-.024v-.58a5.329,5.329,0,0,0,5.552,0v.58c0,.008,0,.016,0,.024Zm1.014-4.851-1.115.743a2.142,2.142,0,0,1-1.192.361h-.991a.586.586,0,0,0,0,1.172h.991a3.309,3.309,0,0,0,1.842-.558l.224-.15A3.7,3.7,0,0,1,10,14.8,3.615,3.615,0,0,1,6.209,11.2V6.454c.231-1.074.566-1.756.969-1.975s.986.009,1.55.228A3.641,3.641,0,0,0,10,5.039,3.53,3.53,0,0,0,11.265,4.7c.565-.225,1.1-.437,1.495-.23.288.15.7.618,1.031,1.989Zm2.734-3.378v2.52a.587.587,0,0,1-.586.586h-.977V6.978h.977a.587.587,0,0,1,.586.586ZM6.033,2.607A4.967,4.967,0,0,1,10,1.172a4.967,4.967,0,0,1,3.967,1.435,5.137,5.137,0,0,1,1.043,3.2h-.18A3.54,3.54,0,0,0,13.3,3.434a2.873,2.873,0,0,0-2.469.18A2.942,2.942,0,0,1,10,3.867a3.072,3.072,0,0,1-.847-.253,2.929,2.929,0,0,0-2.533-.166A3.5,3.5,0,0,0,5.159,5.807H4.99A5.136,5.136,0,0,1,6.033,2.607ZM3.475,10.084V7.564a.587.587,0,0,1,.586-.586h.977V10.67H4.061A.587.587,0,0,1,3.475,10.084Zm-1.946,8.5,4.591-1.953a4.345,4.345,0,0,0,.984,2.2H1.249a.585.585,0,0,1,.279-.248Zm11.368.248a4.345,4.345,0,0,0,.984-2.2l4.591,1.953a.585.585,0,0,1,.279.248Z" fill="#43398e"/>
    </g>
  </g>
</svg>
