<svg id="Icono_face_ID" xmlns="http://www.w3.org/2000/svg" width="105" height="105.013" viewBox="0 0 105 105.013">
  <path id="Trazado_45204" data-name="Trazado 45204" d="M25.761,474.084q5.046,0,10.091,0a14.744,14.744,0,0,1,14.905,14.963q.006,10.534,0,21.068c0,2.572-1.649,4.347-4.02,4.353a4.007,4.007,0,0,1-4.05-4.322q-.007-10.03,0-20.059c0-5.331-2.617-7.928-7.989-7.928q-9.965,0-19.93,0c-2.587,0-4.369-1.629-4.386-3.987-.018-2.452,1.736-4.082,4.408-4.085Q20.274,474.079,25.761,474.084Z" transform="translate(54.238 -474.081)" fill="#43398e"/>
  <path id="Trazado_45205" data-name="Trazado 45205" d="M-107.32,499.112q0-5.11,0-10.219a14.745,14.745,0,0,1,14.8-14.809q10.6-.012,21.191,0c2.576,0,4.369,1.639,4.384,3.989.016,2.436-1.757,4.082-4.415,4.084q-10.218,0-20.435,0c-4.659,0-7.451,2.795-7.454,7.451,0,6.939.006,13.877-.007,20.816a4.065,4.065,0,0,1-3.318,4.017,4.1,4.1,0,0,1-4.6-2.862,4.983,4.983,0,0,1-.145-1.367C-107.325,506.513-107.32,502.813-107.32,499.112Z" transform="translate(107.322 -474.08)" fill="#43398e"/>
  <path id="Trazado_45206" data-name="Trazado 45206" d="M-82.3,632.184q-5.109,0-10.217,0a14.754,14.754,0,0,1-14.807-14.808q-.01-10.6,0-21.195c0-2.594,1.618-4.366,3.985-4.381,2.436-.017,4.085,1.757,4.087,4.413q0,10.218,0,20.438c0,4.656,2.8,7.455,7.449,7.458,6.938.005,13.876-.005,20.813.006a4.068,4.068,0,0,1,4.017,3.319,4.082,4.082,0,0,1-2.862,4.6,5.451,5.451,0,0,1-1.492.149C-74.979,632.189-78.637,632.184-82.3,632.184Z" transform="translate(107.323 -527.173)" fill="#43398e"/>
  <path id="Trazado_45207" data-name="Trazado 45207" d="M25.706,632.184c-3.7,0-7.4.007-11.1,0a4.038,4.038,0,1,1-.038-8.069q10.281-.012,20.562,0c4.811,0,7.553-2.764,7.555-7.608q0-10.156,0-20.312c0-2.6,1.613-4.371,3.977-4.39,2.437-.02,4.093,1.755,4.094,4.405q0,10.661,0,21.321A14.766,14.766,0,0,1,36.05,632.182C32.6,632.19,29.154,632.184,25.706,632.184Z" transform="translate(54.238 -527.173)" fill="#43398e"/>
  <path id="Trazado_45208" data-name="Trazado 45208" d="M-31.38,610.707c-9.7-.177-17.163-2.431-23.076-8.533a25.1,25.1,0,0,1-3.333-4.4,3.951,3.951,0,0,1,1.46-5.47,4.011,4.011,0,0,1,5.5,1.391c3.013,4.89,7.6,7.4,13.048,8.354a25.336,25.336,0,0,0,15.976-1.92,16.787,16.787,0,0,0,7.051-6.285,4.057,4.057,0,0,1,5.679-1.47,4.027,4.027,0,0,1,1.276,5.631A25.478,25.478,0,0,1-24.2,609.611,66.376,66.376,0,0,1-31.38,610.707Z" transform="translate(85.238 -527.145)" fill="#43398e"/>
  <path id="Trazado_45209" data-name="Trazado 45209" d="M-.273,550.94a14.842,14.842,0,0,1-4.2,10.359,4.012,4.012,0,0,1-5.76.3,4,4,0,0,1-.239-5.76c2.383-2.654,2.606-5.474,1-8.58-1.408-2.716-2.752-5.465-4.1-8.21a4.076,4.076,0,0,1,1.656-5.718,4.065,4.065,0,0,1,5.591,2.051c1.521,2.992,3.133,5.949,4.453,9.029a57.228,57.228,0,0,1,1.949,6.437Z" transform="translate(65.286 -500.596)" fill="#43398e"/>
  <path id="Trazado_45210" data-name="Trazado 45210" d="M-50.207,529.885c0,.883.031,1.767-.005,2.648a4.064,4.064,0,0,1-4,4.042,3.947,3.947,0,0,1-4.119-3.871,52.344,52.344,0,0,1,.008-5.8,3.942,3.942,0,0,1,4.058-3.811,4.112,4.112,0,0,1,4.046,4.015C-50.171,528.034-50.208,528.961-50.207,529.885Z" transform="translate(85.26 -496.187)" fill="#43398e"/>
  <path id="Trazado_45211" data-name="Trazado 45211" d="M20.075,529.788c0-.883-.031-1.767.006-2.648a4.094,4.094,0,0,1,4.013-4.04,3.938,3.938,0,0,1,4.084,3.781,49.535,49.535,0,0,1,0,5.92,3.922,3.922,0,0,1-4.2,3.774,4.072,4.072,0,0,1-3.9-4.014C20.042,531.639,20.075,530.713,20.075,529.788Z" transform="translate(49.87 -496.189)" fill="#43398e"/>
</svg>
