<svg id="filtro_btn" xmlns="http://www.w3.org/2000/svg" width="23.04" height="23.04" viewBox="0 0 23.04 23.04">
  <path id="Vector" d="M.96,4.56H3.587a3.579,3.579,0,0,0,6.907,0H22.08a.96.96,0,1,0,0-1.92H10.494a3.579,3.579,0,0,0-6.907,0H.96a.96.96,0,0,0,0,1.92ZM7.04,1.92a1.682,1.682,0,1,1-1.187.493A1.68,1.68,0,0,1,7.04,1.92Z" fill="#43398e"/>
  <path id="Vector-2" data-name="Vector" d="M22.08,2.641H19.453a3.578,3.578,0,0,0-6.906,0H.96a.96.96,0,0,0,0,1.92H12.547a3.578,3.578,0,0,0,6.906,0H22.08a.96.96,0,1,0,0-1.92ZM16,5.281a1.682,1.682,0,1,1,1.187-.493A1.68,1.68,0,0,1,16,5.281Z" transform="translate(0 7.919)" fill="#43398e"/>
  <path id="Vector-3" data-name="Vector" d="M22.08,2.64H10.494a3.579,3.579,0,0,0-6.907,0H.96a.96.96,0,1,0,0,1.92H3.587a3.579,3.579,0,0,0,6.907,0H22.08a.96.96,0,1,0,0-1.92ZM7.04,5.28a1.683,1.683,0,1,1,1.187-.493A1.68,1.68,0,0,1,7.04,5.28Z" transform="translate(0 15.84)" fill="#43398e"/>
</svg>
