<svg id="Icon_correcto" xmlns="http://www.w3.org/2000/svg" width="40.866" height="40.87" viewBox="0 0 40.866 40.87">
  <path id="Trazado_38419" data-name="Trazado 38419" d="M-1138.839-789.905c.106-.746.191-1.5.322-2.237a19.952,19.952,0,0,1,5.083-10.235,20.186,20.186,0,0,1,10.787-6.168,18.355,18.355,0,0,1,4.272-.435,1.508,1.508,0,0,1,1.494,1.376,1.465,1.465,0,0,1-1.214,1.657c-.613.1-1.244.087-1.865.14a16.76,16.76,0,0,0-9.37,3.81,16.629,16.629,0,0,0-5.857,9.13,16.876,16.876,0,0,0,3.923,15.907,16.457,16.457,0,0,0,10.222,5.544,16.858,16.858,0,0,0,14.028-4.092,16.813,16.813,0,0,0,5.57-9.477c.208-.995.25-2.025.363-3.04.028-.25.007-.508.051-.754a1.5,1.5,0,0,1,1.679-1.294,1.5,1.5,0,0,1,1.378,1.571,19.9,19.9,0,0,1-4.26,12.424,20.152,20.152,0,0,1-12.378,7.614c-.688.136-1.394.183-2.091.275-.117.015-.231.049-.347.075h-2.714c-.129-.026-.257-.059-.386-.077-.826-.118-1.665-.182-2.478-.357a20.157,20.157,0,0,1-10.869-6.236A19.9,19.9,0,0,1-1138.522-785c-.126-.729-.212-1.464-.317-2.2Z" transform="translate(1138.839 808.984)" fill="#30c3a3"/>
  <path id="Trazado_38420" data-name="Trazado 38420" d="M-1032.46-738.725a3.588,3.588,0,0,1,.318-.448q8.936-8.925,17.875-17.845a1.681,1.681,0,0,1,1.741-.6,1.539,1.539,0,0,1,.789,2.435,4.532,4.532,0,0,1-.354.378l-19.066,19.025c-1.043,1.04-1.842,1.021-2.832-.055-2.35-2.555-4.709-5.1-7.05-7.665a3.445,3.445,0,0,1-.755-1.141,1.446,1.446,0,0,1,.719-1.7,1.531,1.531,0,0,1,1.9.3c.638.66,1.249,1.344,1.871,2.019l4.594,4.99C-1032.658-738.972-1032.61-738.908-1032.46-738.725Z" transform="translate(1051.557 762.813)" fill="#30c3a3"/>
</svg>
