<svg id="Icon_incorrecto" xmlns="http://www.w3.org/2000/svg" width="74.68" height="64.211" viewBox="0 0 74.68 64.211">
  <path id="Trazado_4209" data-name="Trazado 4209" d="M477.058-8.542a20.674,20.674,0,0,1,2.765-5.4q14.289-23.717,28.586-47.429A6.738,6.738,0,0,1,514.4-65a6.24,6.24,0,0,1,5.5,2.9c1.467,2.231,2.8,4.552,4.177,6.839Q537.31-33.336,550.534-11.4c1.969,3.265,1.5,6.793-1.224,9.069a6.471,6.471,0,0,1-3.936,1.524c-.243.012-.486.013-.729.013q-30.231,0-60.463,0a6.677,6.677,0,0,1-6.565-4.079,15.561,15.561,0,0,1-.559-1.629Zm37.317,2.9q15.025,0,30.05,0a4.671,4.671,0,0,0,1.013-.075,1.8,1.8,0,0,0,1.3-2.482,5.957,5.957,0,0,0-.453-.83q-14.6-24.213-29.2-48.424c-.376-.624-.723-1.269-1.144-1.862a1.815,1.815,0,0,0-3.073,0c-.129.175-.238.367-.35.554Q497.524-33.893,482.532-9.024a5.935,5.935,0,0,0-.452.83,1.8,1.8,0,0,0,1.3,2.478,4.7,4.7,0,0,0,1.014.073Q499.387-5.638,514.375-5.64Z" transform="translate(-477.058 65.003)" fill="red"/>
  <path id="Trazado_4210" data-name="Trazado 4210" d="M669.841,56.194q-.146,4.517-.29,9.033a1.871,1.871,0,0,1-1.424,2.026,3.583,3.583,0,0,1-2.563.014,1.763,1.763,0,0,1-1.285-1.748q-.305-9.032-.616-18.064a2.645,2.645,0,0,1,1.954-2.951c1.57-.494,3.4-.067,4.075,1.093a3.753,3.753,0,0,1,.448,1.858c-.032,2.914-.142,5.828-.225,8.742Z" transform="translate(-629.56 -24.327)" fill="red"/>
  <path id="Trazado_4211" data-name="Trazado 4211" d="M662.945,191.812a3.444,3.444,0,0,1,3.438-3.49,3.475,3.475,0,0,1,.04,6.949A3.469,3.469,0,0,1,662.945,191.812Z" transform="translate(-628.976 -142.03)" fill="red"/>
</svg>
