<?xml version="1.0" encoding="UTF-8"?>
<svg id="Capa_1" data-name="Capa 1" xmlns="http://www.w3.org/2000/svg" viewBox="0 0 1306.69 1692.45">
  <defs>
    <style>
      .cls-1 {
        fill: #0b6031;
      }

      .cls-1, .cls-2, .cls-3, .cls-4, .cls-5, .cls-6, .cls-7, .cls-8, .cls-9, .cls-10, .cls-11, .cls-12 {
        stroke-width: 0px;
      }

      .cls-2 {
        fill: #b1d080;
      }

      .cls-3 {
        fill: #0c6132;
      }

      .cls-4 {
        fill: #0c6031;
      }

      .cls-5 {
        fill: #a9cb74;
      }

      .cls-6 {
        fill: #0c6032;
      }

      .cls-7 {
        fill: #8ab941;
      }

      .cls-8 {
        fill: #116436;
      }

      .cls-9 {
        fill: #8ab840;
      }

      .cls-10 {
        fill: #8ab940;
      }

      .cls-11 {
        fill: #0d6132;
      }

      .cls-12 {
        fill: #89b840;
      }
    </style>
  </defs>
  <path class="cls-12" d="m697.04,1023.1c-14.94-35.41-25.54-68.42-30.67-103.14-14.47-98,10.14-186.42,64.68-267.61,15.75-23.45,33.45-45.4,54.16-64.72,4.37-4.07,9.8-10.91,15.76-6.54,7.4,5.43.92,12.42-2.42,17.7-51.2,80.84-78.33,169.29-82.52,264.61-2.17,49.25,4.21,97.71,17.91,145.26,3.4,11.81,9.54,16.12,21.04,16.87,95.58,6.22,188.18,26.83,278.5,58.26,36.19,12.59,71.49,27.35,105.95,44.07,5.22,2.53,11.95,3.89,14.27,15.1-328.66-100.8-656.16-99.57-983.8-1.76-.56-10.77,7.7-11.53,13.13-14.2,74.69-36.6,153.24-61.95,234.29-80.02,40.73-9.08,81.94-15.17,123.35-19.72,9.18-1.01,13.8-4.44,17.7-12.33,31.41-63.62,34.95-129.58,17.48-197.46-.84-3.26-2.33-6.4-2.85-9.7-.83-5.29-4.23-11.86,2.4-15.19,6.9-3.46,9.97,3.15,13.08,7.57,26,37.03,35.28,78.7,33.08,123.23-1.55,31.37-9.67,61.1-25.26,88.54-4.58,8.06-4.58,11.59,6.55,11.37,30.41-.61,60.84-.21,94.18-.21Z"/>
  <path class="cls-9" d="m90.77,399.84c27-18.45,55.13-25.8,83.55-24.65,148.38,6.01,274.13,60.67,369.69,177.39,7.12,8.69,13.56,17.98,19.79,27.35,3.97,5.96,9.4,13.13,2.54,19.71-8.06,7.74-14.92.26-20.36-4.78-31.49-29.16-65.38-55.14-101.56-78.15-101.8-64.75-211.29-107.14-332.92-114.14-5.93-.34-11.81-1.53-20.73-2.73Z"/>
  <path class="cls-9" d="m911.29,143.49c-35.17,19.83-64.09,41.7-90.32,67.19-74.97,72.85-115.16,161.19-118.58,265.82-.46,14.01,1.63,28.09,2.22,42.16.25,6.01,1.68,13.54-6.16,15.7-8.78,2.42-11.72-5.04-14.12-11.3-14.67-38.32-22.02-78.16-19.71-119.04,4.46-78.95,31.93-148.27,91.68-202.11,40.54-36.52,87.79-58.46,143.44-59.11,2.53-.03,5.07.3,11.54.71Z"/>
  <path class="cls-1" d="m43.62,1495.08c23.71-21.54,49.24-32.75,79.87-26.26,33.53,7.1,51.6,26.91,52.45,60.85,1.21,47.88.13,95.81.74,143.7.15,12.2-8.02,12.08-15.4,12.52-15.38.94-25.73-10.08-26.05-28.71-.6-34.37-.1-68.76-.38-103.13-.15-18.68.77-38.97-20.25-47.93-21.72-9.26-41.78-2.49-59.96,11.26-8.68,6.56-12.8,14.38-12.63,25.84.62,41.13.32,82.28.16,123.42-.03,7.28,3.2,16.5-8.8,18.39-11.43,1.8-21.46-.04-27.95-10.63-4.58-7.48-4.87-15.94-4.85-24.5.1-52.98-.1-105.96.24-158.93.04-6.78-4.7-17.04,8.22-18.37,11.25-1.16,22.94-2.8,29.96,9.33,1.9,3.29,2.61,7.27,4.62,13.15Z"/>
  <path class="cls-1" d="m361.43,1662.41c-23.97,21.22-50.17,32.27-81.41,25.42-28.01-6.14-44.29-23.81-45.1-53.43-1.39-50.66-.33-101.38-.86-152.07-.1-9.16,4.94-9.81,11.39-10.46,18.27-1.84,29.47,7.32,30.12,27.65,1.03,32.07.41,64.2.62,96.3.07,10.13-.15,20.34,1.03,30.36,2.21,18.76,13.02,28.78,31.39,28.56,13.57-.16,26.65-2.98,37.93-11.88,10.72-8.46,16.87-17.6,16.44-32.55-1.14-39.4-.73-78.86-.06-118.28.11-6.71-6.64-18.29,8.09-19.51,12.99-1.07,25.74-.06,30.56,14.65,2.38,7.27,2.37,15.51,2.4,23.32.19,51.26.2,102.52,0,153.78-.03,8.21,3.9,18.79-9.98,20.82-12.69,1.85-23.7.35-29.51-13.02-1.11-2.55-1.71-5.32-3.07-9.67Z"/>
  <path class="cls-1" d="m1036.84,1465.82c14.65.2,29.32.32,42.97,6.82,8.93,4.25,16.16,9.75,18.49,20.33,1.6,7.28.87,13.9-4.57,18.61-5.13,4.45-9.06-1.79-13.23-3.68-21.45-9.73-43.5-10.89-65.86-4.47-10.99,3.15-18.86,9.98-19.33,22.62-.46,12.3,5.62,20.79,16.67,24.68,14.8,5.2,30.02,9.26,45.15,13.52,35.16,9.91,51.03,28.22,51.43,59.7.37,29.67-16.99,50.06-51.16,60.33-24.89,7.48-49.97,7.37-75.01,1.45-18.08-4.27-27.95-15.13-27.47-29.47.35-10.76,2.77-17.05,16.44-11.08,22.54,9.85,46.39,12.77,70.92,7.26,12.81-2.88,22.07-9.47,23.61-22.89,1.68-14.55-7.02-23.54-19.88-27.64-15.46-4.93-31.47-8.12-47.11-12.56-33.46-9.48-47.81-27.9-47.57-60.38.21-28.12,18.9-50.9,48.75-59.18,12.01-3.33,24.27-4.84,36.76-3.96Z"/>
  <path class="cls-9" d="m320.53,123.71c31.4-9.15,61.19-3.47,89.5,10.44,76.15,37.42,121.97,101.11,151.43,178.24,12.73,33.33,19.22,68.18,21.11,103.78.41,7.75,4.16,18.99-7.77,20.97-10.91,1.81-13.07-8.81-15.59-16.69-21.82-68.25-53.72-131.07-99.66-186.41-36.81-44.34-79.63-81.05-132.78-104.66-2.49-1.1-5.4-1.79-6.24-5.68Z"/>
  <path class="cls-1" d="m464.38,1541.25c0-29.85-.42-59.7.14-89.54.4-21.21,13.71-34.63,31.73-34.06,6.74.21,10.3,2.26,10,9.88-.47,11.81.27,23.66-.17,35.47-.31,8.29,2.23,11.44,10.71,8.96,11.5-3.36,23.39-3.47,35.18-2.36,9.19.87,17.8,3.68,22.07,13.12,3.14,6.95,4.27,14.89.48,21.13-3.74,6.15-10.32.6-15.41-.24-14.07-2.33-28.01-1.2-42.08-.38-9.06.53-11.11,4.86-11.04,12.98.31,34.35-.42,68.72.39,103.05.74,31.12,16.32,41.59,46.88,34.09,5.02-1.23,11.25-8.75,16.13-.95,4.65,7.43,2.06,15.28-2.88,22.06-1.62,2.23-3.75,4.22-5.98,5.85-31.22,22.83-85.84,3.12-93.66-34.58-5.99-28.86-1.45-58.38-2.52-87.58-.21-5.62-.03-11.26-.03-16.89h.07Z"/>
  <path class="cls-9" d="m1025.67,119.63c40.93,103.23,24.49,198.27-41.2,286.07-22.29,29.79-51.04,52.22-83.33,70.29-3.91,2.19-7.97,4.21-12.14,5.86-5.89,2.32-12.28,4.43-16.81-2.09-5.04-7.25-.89-12.82,4.69-17.4,23.59-19.36,45.47-40.41,63.93-64.8,59.88-79.16,84.68-168.98,81.1-267.39-.13-4-4.48-9.51,3.75-10.53Z"/>
  <path class="cls-9" d="m1192.75,443.74c6.12,29.13.74,54.68-13.73,78.48-28.11,46.23-71.64,72.34-121.04,89.38-42.33,14.6-85.93,22.71-131.08,15.75-3.87-.6-7.84-.93-11.56-2.05-3.16-.95-7.04-2.53-6.78-6.5.25-3.8,3.86-5.11,7.34-5.71,11.07-1.92,22.24-3.4,33.2-5.81,100.3-22.02,182.97-70.54,238.79-159.29.76-1.22,2.23-1.99,4.86-4.24Z"/>
  <path class="cls-6" d="m655.52,1500.48c16.08-22.08,33.21-36.3,59.22-34.37,11.77.87,19.21,6.67,19.85,18.68.49,9.02-1.14,16.07-13.93,15.12-21-1.55-40.19,3.74-54.01,21.4-7.15,9.13-10.8,19.14-10.65,31.11.45,37.68.13,75.38.2,113.07.02,8.94,1.78,18.24-11.44,20.02-12.67,1.71-22.24-2.04-28.12-13.45-3.16-6.14-2.86-13.06-2.85-19.85.06-53.44-.15-106.88.23-160.32.05-7.59-5.35-18.54,10.22-19.88,14.04-1.21,24.6,1.33,29.29,15.85,1,3.08,1.06,6.46,2,12.61Z"/>
  <path class="cls-9" d="m1296.69,594.07c.01,31.18-24.68,56.14-55.49,56.11-28.73-.03-53.65-24.99-53.96-54.04-.33-30.52,23.77-56.61,52.65-57,31.06-.42,56.79,24.47,56.8,54.93Z"/>
  <path class="cls-9" d="m771.15,56.13c.65-30.34,25.82-55.33,54.86-54.49,30.89.9,55.51,26.62,54.47,56.92-1.01,29.36-26.02,54.12-54.18,53.62-31.06-.55-55.8-25.7-55.15-56.05Z"/>
  <path class="cls-9" d="m518.5,55.84c.19,30.58-23.62,55.76-53.2,56.26-30.54.51-55.87-23.49-56.12-53.18-.26-31.9,23.83-57.42,53.99-57.2,30.62.23,55.14,24.21,55.33,54.12Z"/>
  <path class="cls-9" d="m1131,322.97c-29.79.02-54.43-25.03-54.36-55.27.06-30.09,24.47-53.7,55.68-53.87,29.54-.16,55.01,25.67,54.46,55.25-.56,30.63-24.62,53.87-55.78,53.89Z"/>
  <path class="cls-9" d="m165.92,211.46c28.14.02,53.5,25.65,54,54.57.5,28.59-26.73,56.42-54.65,55.85-29.21-.59-55.31-25.37-55.9-53.09-.67-31.35,24.98-57.35,56.55-57.32Z"/>
  <path class="cls-9" d="m66.79,555.01c30.35.48,55.15,25.69,54.35,55.24-.81,29.97-26.69,55.11-55.8,54.23-31.03-.94-55.43-26.6-54.41-57.23.95-28.47,26.87-52.7,55.86-52.25Z"/>
  <path class="cls-9" d="m96.88,488.9c30.03,20.36,58.41,42.31,88.92,61.24,48.09,29.83,97.97,55.28,154.6,64.44,8.85,1.43,17.9,1.77,26.87,2.31,5.81.35,10.35,2.93,10.89,8.54.59,6.1-4.53,8.34-9.81,9.6-15.03,3.59-30.35,2.92-45.4,1.51-77.4-7.22-144.53-36.42-197.07-95.07-13.38-14.93-24.01-31.98-29-52.56Z"/>
  <path class="cls-3" d="m496.4,1291.09c-.08,33.98-1.08,35.69-25.23,42.84-31,9.18-62.45.92-75.74-21.34-18.09-30.3-18.26-62.73-4.11-93.95,13.88-30.64,61.79-41.35,89.52-22.39,7.08,4.84,10.57,10.66,5.44,18.35-5.56,8.32-9.72-.14-13.57-2.45-33.31-20.06-65.47-4.17-70.02,34.41-1.4,11.9-1.26,23.56.62,35.25,4.03,25.02,21.12,39.98,44.66,39.39,28.37-.71,37.86-14.06,30.08-41.75-2.69-9.6-10.15-3.96-15.33-5.52-5.43-1.64-15.14,4.43-14.8-7.6.33-11.79,9.9-5.32,15.31-7.07.51-.17,1.12-.02,1.68-.02q31.55-.12,31.48,31.85Z"/>
  <path class="cls-7" d="m691.85,0c28.16,23.47,45.08,53.81,51.97,89.21,6.48,33.29,3.65,66.09-10.48,97.38-2.83,6.26-6.4,13.16-14.9,10.07-6.96-2.53-7.13-9.4-6.3-15.82,7.75-60.3-.22-118.83-19.74-176.08-.5-1.48-.38-3.16-.55-4.75Z"/>
  <path class="cls-10" d="m54.01,765.08c25.03-67.16,96.29-114.87,161.32-111.33,7.63.42,17.45-.66,18.89,9.84,1.6,11.65-9.27,11.11-16.29,12.81-55.85,13.55-104.67,40.57-148.89,76.64-3.84,3.14-7.74,6.21-15.03,12.04Z"/>
  <path class="cls-7" d="m1241.52,758.01c-42.94-46.8-92.91-83.05-152.32-105.62-6.44-2.45-13.78-5.3-11.4-13.86,1.95-7.05,9.36-7.32,15.58-7.29,62.17.26,136.03,61.23,149.17,123.1.2.95-.56,2.1-1.02,3.68Z"/>
  <path class="cls-7" d="m297.25,171.9c-4.77,65.2,3.08,126.04,38.08,181.17,2.96,4.67,7.08,10.36,1.3,15.02-4.83,3.9-9.49-.82-13.49-3.63-58.25-41-71.53-134.77-25.89-192.56Z"/>
  <path class="cls-10" d="m1228.49,387.2c-61.21-7.58-121.09-1.82-179.55,17.96-6.38,2.16-12.8,3.41-15.97-3.86-3.35-7.7,2-12.67,7.94-16.58,42.76-28.12,89.08-35.86,138.55-23.2,18.53,4.74,36.16,12.22,52.52,22.36.65,3.02.1,4.78-3.5,3.31Z"/>
  <path class="cls-7" d="m615.96,22.17c-16.34,17.89-29.92,36.24-40.04,56.97-17.44,35.73-24.48,73.49-22.45,113.05.29,5.65,1.71,13.05-4.91,14.41-8.37,1.71-9.01-6.63-10.11-12.43-8.17-42.88-9.03-85.19,11.87-125.28,14.04-26.94,36.93-43.32,65.63-46.72Z"/>
  <path class="cls-11" d="m684.57,1285.86c0,12.4-.72,24.85.22,37.18.81,10.66-6.72,15.39-12.27,10.54-9.64-8.42-15.78-.81-22.79,1.23-31.83,9.27-49.42-3.09-49.95-36.15-.29-18.03-.32-36.07.1-54.1.11-4.52-3.88-12.33,6.34-12.06,7.64.2,11.47,4.46,11.64,11.64.41,17.46.22,34.93.64,52.39.54,22.34,14.09,30.73,34.99,22.14,9.42-3.87,13.82-10.09,13.41-20.79-.7-18.01-.39-36.07-.03-54.09.08-4.18-3.23-11.18,5.49-11.26,7.2-.07,11.9,3.27,11.95,11.07.09,14.09.03,28.18.03,42.26.08,0,.16,0,.24,0Z"/>
  <path class="cls-8" d="m525.25,1282.73c0-13.49.41-27-.13-40.47-.41-10.21,5.41-13.44,11.71-7.7,7,6.37,10.37,3.5,16.06-.29,6.19-4.12,13.1-5.69,20.8-2.53,6.12,2.51,9.43,5.56,7.56,12.54-1.83,6.84-5.09,7.16-12.04,5.89-18.19-3.33-24.81,2.97-24.96,21.36-.14,17.42-.26,34.86.07,52.27.14,7.38-1.28,11.25-10.05,11.33-9.71.09-9.13-5.46-9.06-11.93.15-13.49.05-26.98.05-40.47Z"/>
  <path class="cls-2" d="m1025.67,119.63c-4.22,2.45-2.27,7.1-3.75,10.53-3.97-6.7-3.07-13.89-2.38-21.54,4.94,2.44,5.68,6.64,6.13,11.01Z"/>
  <path class="cls-5" d="m1228.49,387.2c1.17-1.1,2.33-2.21,3.5-3.31,3.05.92,6.18,1.73,7.54,5.3-4.19,1.55-7.74.48-11.03-1.99Z"/>
  <path class="cls-1" d="m1305.95,1542.91c-.65-24.1-7.11-46.89-27.9-62.57-26.9-20.29-92.13-19.86-118.99.66-6.98,5.33-12.37,11.55-12.13,21,.29,11.31,3.68,17.14,16.48,11.24,18.17-8.38,37.45-11.74,57.52-9.85,25.63,2.42,38.02,15.19,42.52,39.91,2.97,16.36-1.81,19.96-17.58,18.33-26.05-2.69-51.76.33-75.45,12.82-25.28,13.33-36.3,35.32-32.86,64.53,2.93,24.84,19.27,42.09,47.06,48.46,29.82,6.83,55.65-.66,77.31-24.17,3.95,6.97,4.93,13.37,10.42,17.24,8.55,6.02,17.36,6.46,27.25,3.65,6.5-1.85,7.11-5.65,7.08-11.14-.24-43.37.43-86.76-.73-130.1Zm-43.83,89.62c-10.08,22.61-44.96,33.44-66.52,21.14-10.21-5.82-14.4-15.01-14.36-26.65.04-13.2,6.37-22.4,17.44-28.56,12.72-7.07,26.78-7.61,42.27-7.41,6.54,2.01,18.96-3.95,21.95,3.8,4.45,11.52,4.64,25.52-.78,37.68Z"/>
  <path class="cls-1" d="m884.72,1581.58c18.77-9.11,32.31-22.73,33.68-44.84,1.45-23.36-5.34-43.32-25.71-57.01-30.19-20.28-79.03-19.14-108.34,2.58-38.51,28.53-45.84,69.14-42.08,112.99,6.69,77.89,91.92,121.59,160.09,82.75,9.38-5.35,16.14-12.64,15.04-24.26-.8-8.5-3.64-14.38-13.8-7.85-8.69,5.59-18.95,7.07-28.87,8.71-48.26,7.97-84.42-18.34-88.61-65.45,42.66,6.92,73.26,4.68,98.6-7.61Zm-76.91-21.6c-23.02-2.95-25.52-7.81-15.57-29.77,11.71-25.82,42.46-37.63,68.1-26.05,10.13,4.57,15.67,12.68,16.23,23.69.53,10.4-4.04,18.42-13.14,23.67-12.54,7.24-26.24,9.53-40.53,9.65-5.04-.38-10.1-.54-15.1-1.18Z"/>
  <path class="cls-4" d="m803.95,1263.1c-7.51-29.56-33.01-41.07-59.94-27.09-4.91,2.55-7.92,5.57-13.74-.1-6.42-6.25-13.25-6.38-13.2,6.17.19,43.32.19,86.63-.06,129.95-.04,7.07,1.77,9.77,9.38,9.86,8.33.1,8.87-4,8.74-10.37-.27-13.48-.08-26.97-.08-41.85,32.47,13.69,57.38,6.52,66.45-18.46,5.68-15.64,6.56-31.92,2.44-48.11Zm-57.87,55.13c-7.17-3.52-11.66-8.02-11.18-16.81.55-10.1.78-20.31-.08-30.37-1.14-13.47,3.9-22.1,17.34-24.22,14.06-2.22,25.54,1.31,31.19,16.34,2.68,7.13,2.31,14.34,2.88,19.75-.46,32.45-17.39,46.5-40.15,35.31Z"/>
  <path class="cls-6" d="m875.7,1229.96c-28.34.27-48,22.51-47.88,54.17.12,33.64,17.75,53.56,47.34,53.5,29.1-.06,47.18-20.46,47.55-53.69.37-33.15-18.01-54.26-47.01-53.99Zm20.25,82.38c-7.8,9.72-24.87,12.64-35.21,6.02-8.93-5.72-13.99-18.15-14.01-37.38.36-9.06,2-20.76,11.96-29.03,10.05-8.34,26.49-7.35,35.49,1.64,11.41,11.39,12.43,45.44,1.76,58.75Z"/>
</svg>