<svg id="alerta_pedido_inferio_" data-name="alerta_pedido_inferio " xmlns="http://www.w3.org/2000/svg" width="19.98" height="19.975" viewBox="0 0 19.98 19.975">
  <path id="Trazado_4213" data-name="Trazado 4213" d="M-73.727-148.206v1.171c-.016.14-.032.281-.048.422a9.85,9.85,0,0,1-2.149,5.218,9.847,9.847,0,0,1-6.091,3.612c-.369.066-.743.1-1.115.153H-84.3c-.063-.012-.126-.026-.189-.035-.424-.06-.854-.091-1.271-.182a9.769,9.769,0,0,1-5.855-3.694,9.687,9.687,0,0,1-1.871-8.108,9.611,9.611,0,0,1,3.259-5.518,9.74,9.74,0,0,1,7.508-2.388,9.565,9.565,0,0,1,5.178,2.1,9.852,9.852,0,0,1,3.662,6.132C-73.815-148.952-73.778-148.578-73.727-148.206Zm-8.988,2.565.249-2.485q.186-1.852.371-3.7c.064-.653.158-1.306.174-1.96a1.787,1.787,0,0,0-2.484-1.688,1.84,1.84,0,0,0-1.1,2.014q.354,3.5.7,7c.028.276.06.551.091.837h1.889A.882.882,0,0,0-82.716-145.641Zm-2.993,4a2.018,2.018,0,0,0,1.989,2.009,2.018,2.018,0,0,0,2-2,2.014,2.014,0,0,0-2-2A2.013,2.013,0,0,0-85.709-141.636Z" transform="translate(93.707 157.606)" fill="#ff000a"/>
</svg>
