<svg id="logo_header" xmlns="http://www.w3.org/2000/svg" width="123.525" height="34" viewBox="0 0 123.525 34">
  <path id="Vector" d="M15.7,1a7.775,7.775,0,0,1,3.44,2.846,7.775,7.775,0,0,1,1.22,4.348,7.775,7.775,0,0,1-1.22,4.348,7.742,7.742,0,0,1-3.44,2.846,13.009,13.009,0,0,1-5.254,1H7.318v5.348H0V0H10.445A12.9,12.9,0,0,1,15.7,1Zm-3.471,9.07a2.36,2.36,0,0,0,.751-1.877,2.36,2.36,0,0,0-.751-1.877,3.3,3.3,0,0,0-2.22-.657H7.349v5.1h2.658A3.15,3.15,0,0,0,12.227,10.071Z" transform="translate(0 4.942)" fill="#43398e"/>
  <path id="Vector-2" data-name="Vector" d="M0,0H7V16.983H0Z" transform="translate(22.985 8.676)" fill="#43398e"/>
  <path id="Vector-3" data-name="Vector" d="M18.888,10.478H7.1a2.76,2.76,0,0,0,1.251,1.47,4.236,4.236,0,0,0,2.158.5,5.39,5.39,0,0,0,1.876-.281,6.273,6.273,0,0,0,1.657-.97L17.7,14.888q-2.486,2.721-7.411,2.721a12.392,12.392,0,0,1-5.41-1.126,8.46,8.46,0,0,1-3.6-3.159A8.339,8.339,0,0,1,0,8.789,8.242,8.242,0,0,1,1.251,4.254a8.534,8.534,0,0,1,3.44-3.128A10.606,10.606,0,0,1,9.6,0a10.535,10.535,0,0,1,4.691,1.032,8.247,8.247,0,0,1,3.377,3A8.625,8.625,0,0,1,18.92,8.789,7.438,7.438,0,0,1,18.888,10.478ZM7.912,5.411A2.9,2.9,0,0,0,6.974,7.1h5.473a3.017,3.017,0,0,0-.938-1.658,2.643,2.643,0,0,0-1.814-.594A2.546,2.546,0,0,0,7.912,5.411Z" transform="translate(54.351 8.335)" fill="#43398e"/>
  <path id="Vector-4" data-name="Vector" d="M8.068,4.035A4.034,4.034,0,1,1,4.034,0,4.034,4.034,0,0,1,8.068,4.035Z" transform="translate(22.516)" fill="#1cc57c"/>
  <path id="Vector-5" data-name="Vector" d="M19.483,0V23.02H12.822V21.613a5.95,5.95,0,0,1-4.66,1.72,8.007,8.007,0,0,1-4.1-1.063,7.667,7.667,0,0,1-2.971-3.1A9.767,9.767,0,0,1,0,14.513,9.554,9.554,0,0,1,1.095,9.884,7.585,7.585,0,0,1,4.065,6.818a8.088,8.088,0,0,1,4.1-1.063,5.959,5.959,0,0,1,4.316,1.47V.031h7ZM11.821,17.015a3.552,3.552,0,0,0,.782-2.471,3.417,3.417,0,0,0-.782-2.44,2.524,2.524,0,0,0-1.97-.876,2.438,2.438,0,0,0-1.97.876,3.521,3.521,0,0,0-.782,2.44,3.552,3.552,0,0,0,.782,2.471,2.524,2.524,0,0,0,1.97.876A2.631,2.631,0,0,0,11.821,17.015Z" transform="translate(32.554 3.816)" fill="#43398e"/>
  <path id="Vector-6" data-name="Vector" d="M9.538,16.858l-2.5,2.221v4H0V0H7.036V11.01l4.91-4.942h8.318l-5.723,6.381L18.357,22.77H11.7Z" transform="translate(75.835 3.628)" fill="#43398e"/>
  <path id="Vector-7" data-name="Vector" d="M21.609,0l-7,17.359a9.9,9.9,0,0,1-3.315,4.66c-1.313.907-3.878-4.348-3.471-4.785L0,0H7.224l4.128,9.1,3.6-9.1Z" transform="translate(96.631 7.696)" fill="#43398e"/>
  <path id="Vector-8" data-name="Vector" d="M3.54,25.241a9.853,9.853,0,0,0,3.315-4.66L15.2,0H8.449L3.6,12.354.037,20.487C-.338,20.924,2.226,26.148,3.54,25.241Z" transform="translate(104.349 4.474)" fill="#1cc57c"/>
  <g id="Group" transform="translate(87.531 0.532)">
    <path id="Vector-9" data-name="Vector" d="M11.07,0,0,4.692,1.845,9.008,8.6,6.13l2.877,6.756,4.316-1.845Z" transform="translate(20.202)" fill="#1cc57c"/>
    <path id="Vector-10" data-name="Vector" d="M17.231,0a5.917,5.917,0,0,1-5.285,3.284A5.917,5.917,0,0,1,6.661,0H0A12.213,12.213,0,0,0,11.946,9.633,12.239,12.239,0,0,0,23.892,0Z" transform="translate(0 23.835)" fill="#1cc57c"/>
  </g>
</svg>
