<svg id="catalogo_img_norm" xmlns="http://www.w3.org/2000/svg" width="24.998" height="25" viewBox="0 0 24.998 25">
  <path id="Vector" d="M22.068,7.421H10.721L9.232,4.394h1.021V0H1.465V4.394H2.485L0,9.448V23.533H9.863a3.532,3.532,0,0,0,3.35,1.419,2.828,2.828,0,0,0,.7-.224,2.824,2.824,0,0,0,.7.224,3.528,3.528,0,0,0,3.35-1.419h5.567V12.888a2.93,2.93,0,0,0-1.465-5.467ZM2.929,1.465H8.788V2.929H2.929ZM4.118,4.394H7.6l2.653,5.394v.842l-.567.283a3.046,3.046,0,0,1-3.045-.19,4.519,4.519,0,0,0-5.176.127V9.789ZM1.465,22.068V12.851l.528-.529a3.048,3.048,0,0,1,3.835-.38,4.514,4.514,0,0,0,4.425.323V16.93a4.515,4.515,0,0,0-1.409,4.309,5.372,5.372,0,0,0,.216.829ZM14.87,23.51a3.052,3.052,0,0,1-.956-.471,3.049,3.049,0,0,1-.956.471c-1.3.229-2.423-1.111-2.672-2.525-.406-2.305,1.27-3.987,2.9-3v1.156h1.465V17.983a1.779,1.779,0,0,1,1.241-.264c1.193.21,1.936,1.676,1.655,3.266C17.3,22.367,16.191,23.743,14.87,23.51Zm7.686-11.778-.488.173V22.068h-3.3a5.342,5.342,0,0,0,.215-.829c.4-2.252-.726-4.59-2.843-4.963a3.106,3.106,0,0,0-1.416.083,2.2,2.2,0,0,1,2.118-1.614V13.28A3.667,3.667,0,0,0,13.223,16.4a3.12,3.12,0,0,0-1.505-.125V9.448l-.276-.562H22.068a1.465,1.465,0,0,1,.488,2.846Z" fill="#fafafa"/>
  <path id="Vector-2" data-name="Vector" d="M2.812,0A2.812,2.812,0,1,0,5.624,2.812,2.816,2.816,0,0,0,2.812,0Zm0,4.218A1.406,1.406,0,1,1,4.218,2.812,1.408,1.408,0,0,1,2.812,4.218Z" transform="translate(2.812 13.443)" fill="#fafafa"/>
</svg>
