<svg id="historico_img_norm" xmlns="http://www.w3.org/2000/svg" width="30.769" height="25" viewBox="0 0 30.769 25">
  <g id="Group">
    <g id="Group-2" data-name="Group">
      <path id="Vector" d="M30.633,16.813l-2.885-4.808a.959.959,0,0,0-.825-.467H21.154V8.654a.962.962,0,0,0-.962-.962H13.363a6.622,6.622,0,0,0,.1-.962,6.731,6.731,0,1,0-11.538,4.7V22.115a.962.962,0,0,0,.962.962H5.946a2.868,2.868,0,0,0,5.415,0H23.254a2.868,2.868,0,0,0,5.415,0h1.138a.962.962,0,0,0,.962-.962V17.308A.947.947,0,0,0,30.633,16.813ZM1.923,6.731a4.808,4.808,0,1,1,4.808,4.808A4.813,4.813,0,0,1,1.923,6.731ZM8.654,23.077a.962.962,0,1,1,.962-.962A.963.963,0,0,1,8.654,23.077Zm10.577-1.923H11.362a2.868,2.868,0,0,0-5.415,0h-2.1V12.787a6.64,6.64,0,0,0,8.94-3.171h6.444Zm6.731,1.923a.962.962,0,1,1,.962-.962A.963.963,0,0,1,25.961,23.077Zm2.885-1.923h-.177a2.868,2.868,0,0,0-5.415,0h-2.1V13.462h5.225l2.467,4.113Z" transform="translate(0 0)" fill="#fafafa"/>
    </g>
  </g>
  <g id="Group-3" data-name="Group" transform="translate(5.951 4.1)">
    <g id="Group-4" data-name="Group">
      <path id="Vector-2" data-name="Vector" d="M2.781,3.22,1.5,1.94V.75A.75.75,0,0,0,0,.75v1.5a.755.755,0,0,0,.219.531l1.5,1.5A.75.75,0,1,0,2.781,3.22Z" fill="#fafafa"/>
    </g>
  </g>
</svg>
