<svg id="home_img" xmlns="http://www.w3.org/2000/svg" width="21.111" height="24" viewBox="0 0 21.111 24">
  <g id="Group" transform="translate(0)">
    <g id="Group-2" data-name="Group">
      <path id="Vector" d="M20.841,9.386l-10-9.167A.834.834,0,0,0,9.7.235L.253,9.4A.834.834,0,0,0,0,10V23.167A.833.833,0,0,0,.833,24H7.778a.833.833,0,0,0,.833-.833V17.056H12.5v6.111a.833.833,0,0,0,.833.833h6.944a.833.833,0,0,0,.833-.833V10A.834.834,0,0,0,20.841,9.386Zm-1.4,12.948H14.167V16.222a.833.833,0,0,0-.833-.833H7.778a.833.833,0,0,0-.833.833v6.111H1.667V10.352l8.628-8.374,9.15,8.388V22.333Z" transform="translate(0)" fill="#30c3a3"/>
    </g>
  </g>
</svg>
