<svg id="mi_negocio_norm" xmlns="http://www.w3.org/2000/svg" width="31" height="25" viewBox="0 0 31 25">
  <g id="Group" transform="translate(6.25 15.944)">
    <g id="Group-2" data-name="Group">
      <path id="Vector" d="M5.25,0H.75A.75.75,0,0,0,0,.75v3a.75.75,0,0,0,.75.75h4.5A.75.75,0,0,0,6,3.75v-3A.75.75,0,0,0,5.25,0ZM4.5,3h-3V1.5h3Z" fill="#fafafa"/>
    </g>
  </g>
  <g id="Group-3" data-name="Group">
    <g id="Group-4" data-name="Group">
      <path id="Vector-2" data-name="Vector" d="M30.82,7.727,25.976.435A.953.953,0,0,0,25.188,0H5.813a.953.953,0,0,0-.789.435L.18,7.727A1.094,1.094,0,0,0,0,8.333a4.216,4.216,0,0,0,1.938,3.588V23.958A1.008,1.008,0,0,0,2.906,25h15.5a1.008,1.008,0,0,0,.969-1.042V16.667H23.25v7.292A1.008,1.008,0,0,0,24.219,25h3.875a1.008,1.008,0,0,0,.969-1.042V11.921A4.216,4.216,0,0,0,31,8.333,1.094,1.094,0,0,0,30.82,7.727Zm-3.695,15.19H25.188V15.625a1.008,1.008,0,0,0-.969-1.042H18.406a1.008,1.008,0,0,0-.969,1.042v7.292H3.875V12.5a3.757,3.757,0,0,0,2.906-1.415,3.693,3.693,0,0,0,5.813,0,3.693,3.693,0,0,0,5.813,0,3.693,3.693,0,0,0,5.813,0A3.757,3.757,0,0,0,27.125,12.5Zm0-12.5a2.016,2.016,0,0,1-1.937-2.083.971.971,0,1,0-1.937,0,1.943,1.943,0,1,1-3.875,0,.971.971,0,1,0-1.937,0A2.016,2.016,0,0,1,15.5,10.417a2.016,2.016,0,0,1-1.937-2.083.971.971,0,1,0-1.937,0,2.016,2.016,0,0,1-1.937,2.083A2.016,2.016,0,0,1,7.75,8.333a1.008,1.008,0,0,0-.969-1.042,1.008,1.008,0,0,0-.969,1.042,2.016,2.016,0,0,1-1.937,2.083A1.99,1.99,0,0,1,1.959,8.637L6.31,2.083H24.69l4.352,6.554A1.99,1.99,0,0,1,27.125,10.417Z" transform="translate(0 0)" fill="#fafafa"/>
    </g>
  </g>
</svg>
