<svg xmlns="http://www.w3.org/2000/svg" width="123.84" height="123.833" viewBox="0 0 123.84 123.833">
  <g id="no_senal_img" transform="translate(0)">
    <path id="Trazado_4215" data-name="Trazado 4215" d="M-122-69.557v-71.087a5.79,5.79,0,0,0,.218-.807A28.886,28.886,0,0,1-100.813-165.9c1.692-.478,3.444-.74,5.169-1.1h71.087a5.431,5.431,0,0,0,.8.217A28.872,28.872,0,0,1,1.767-138.436q.143,33.3,0,66.6a28.814,28.814,0,0,1-28.594,28.6q-33.239.144-66.48.005A28.844,28.844,0,0,1-121.06-64.964C-121.448-66.476-121.69-68.025-122-69.557Zm12.37-78.243a19.779,19.779,0,0,0-2.7,10.182q.015,32.578.021,65.156a19.921,19.921,0,0,0,.368,3.959A19.263,19.263,0,0,0-92.807-52.879q23.512.031,47.024.005c6.367,0,12.734.036,19.1-.027a17.829,17.829,0,0,0,9.218-2.664c-.345-.367-.609-.662-.887-.941q-4.613-4.619-9.23-9.233c-2.564-2.564-5.15-5.108-7.687-7.7-2.226-2.275-2.171-5.294.069-7.247,2.073-1.808,4.733-1.613,6.91.556q8.392,8.362,16.759,16.748c.3.3.621.568.992.906A19.454,19.454,0,0,0-7.872-72.5q-.006-32.639-.018-65.278a19.771,19.771,0,0,0-.378-3.957,19.251,19.251,0,0,0-19.162-15.589q-32.639-.022-65.278.006a21.92,21.92,0,0,0-3.367.257,17.325,17.325,0,0,0-6.837,2.554c.507.406.918.676,1.259,1.015,3.141,3.127,6.286,6.251,9.4,9.408a4.6,4.6,0,0,1,1.2,4.895,4.617,4.617,0,0,1-3.691,3.283,4.847,4.847,0,0,1-4.588-1.577C-102.709-140.882-106.1-144.268-109.63-147.8Z" transform="translate(122 167)" fill="#1cc57c"/>
    <path id="Trazado_4216" data-name="Trazado 4216" d="M-19.372-72.751c16.917.379,30.389,5.591,41.2,17.049A5.045,5.045,0,0,1,23.442-51a4.621,4.621,0,0,1-3.425,3.7,4.863,4.863,0,0,1-4.868-1.339,80.029,80.029,0,0,0-7.734-6.71C-.814-61.044-10.1-63.335-20.03-62.92A44.437,44.437,0,0,0-47.415-52.571c-1.356,1.133-2.585,2.423-3.829,3.683C-53.4-46.7-56.3-46.5-58.351-48.421s-2.033-4.862.06-7.11A52.43,52.43,0,0,1-27.985-71.755C-24.7-72.318-21.356-72.528-19.372-72.751Z" transform="translate(79.94 103.195)" fill="#1cc57c"/>
    <path id="Trazado_4217" data-name="Trazado 4217" d="M36.214-.2a4.757,4.757,0,0,1-2.835,4.239A4.74,4.74,0,0,1,28,3.137a59.738,59.738,0,0,0-5.592-4.586A30.078,30.078,0,0,0-15.8,2.454c-1.425,1.417-2.965,2.383-5.042,1.935A4.619,4.619,0,0,1-24.49,1.061a4.594,4.594,0,0,1,1.177-4.792A38.082,38.082,0,0,1-5.7-14.51C9.607-18.656,23-15.023,34.456-4.1A5.2,5.2,0,0,1,36.214-.2Z" transform="translate(56.15 64.896)" fill="#1cc57c"/>
    <path id="Trazado_4218" data-name="Trazado 4218" d="M31.454,40.222A24.244,24.244,0,0,1,47.768,47a4.822,4.822,0,1,1-6.518,7.1,14.347,14.347,0,0,0-9.28-4.136,14,14,0,0,0-10.1,3.918,4.985,4.985,0,0,1-4.619,1.494,4.608,4.608,0,0,1-3.671-3.45,4.56,4.56,0,0,1,1.306-4.756A24.567,24.567,0,0,1,31.454,40.222Z" transform="translate(30.347 26.715)" fill="#1cc57c"/>
    <path id="Trazado_4219" data-name="Trazado 4219" d="M50.927,104.687a6.04,6.04,0,0,1,12.079,0,6.04,6.04,0,1,1-12.079,0Z" transform="translate(4.932 -12.901)" fill="#1cc57c"/>
  </g>
</svg>
