<svg xmlns="http://www.w3.org/2000/svg" width="24" height="25" viewBox="0 0 24 25">
  <g id="pedido_rapido_img_norm" transform="translate(0 0)">
    <g id="Group" transform="translate(7.5 19.501)">
      <g id="Group-2" data-name="Group">
        <path id="Vector" d="M2.25,0A2.25,2.25,0,1,0,4.5,2.25,2.253,2.253,0,0,0,2.25,0Zm0,3A.75.75,0,1,1,3,2.25.75.75,0,0,1,2.25,3Z" fill="#fafafa"/>
      </g>
    </g>
    <g id="Group-3" data-name="Group" transform="translate(16.501 19.501)">
      <g id="Group-4" data-name="Group">
        <path id="Vector-2" data-name="Vector" d="M2.25,0A2.25,2.25,0,1,0,4.5,2.25,2.253,2.253,0,0,0,2.25,0Zm0,3A.75.75,0,1,1,3,2.25.75.75,0,0,1,2.25,3Z" fill="#fafafa"/>
      </g>
    </g>
    <g id="Group-5" data-name="Group" transform="translate(0 9)">
      <g id="Group-6" data-name="Group">
        <path id="Vector-3" data-name="Vector" d="M.75,0A.75.75,0,0,0,0,.75v3a.75.75,0,1,0,1.5,0v-3A.75.75,0,0,0,.75,0Z" transform="matrix(0, 1, -1, 0, 4.5, 0)" fill="#fafafa"/>
      </g>
    </g>
    <g id="Group-7" data-name="Group" transform="translate(0.75 6)">
      <g id="Group-8" data-name="Group">
        <path id="Vector-4" data-name="Vector" d="M.75,0A.75.75,0,0,0,0,.75v1.5a.75.75,0,1,0,1.5,0V.75A.75.75,0,0,0,.75,0Z" transform="matrix(0, 1, -1, 0, 3, 0)" fill="#fafafa"/>
      </g>
    </g>
    <g id="Group-9" data-name="Group" transform="translate(2.25 12)">
      <g id="Group-10" data-name="Group">
        <path id="Vector-5" data-name="Vector" d="M.75,0A.75.75,0,0,0,0,.75v1.5a.75.75,0,1,0,1.5,0V.75A.75.75,0,0,0,.75,0Z" transform="matrix(0, 1, -1, 0, 3, 0)" fill="#fafafa"/>
      </g>
    </g>
    <path id="Union" d="M8.25,18a.748.748,0,0,1-.724-.557L3.669,3H.75a.75.75,0,1,1,0-1.5h3.5a.749.749,0,0,1,.724.556L5.622,4.5H8.79L8.273,2.432a.749.749,0,0,1,.564-.913L12.212.768a.75.75,0,0,1,.881.517l.2.658L13.51.626A.752.752,0,0,1,14.4.014l3.749.751a.751.751,0,0,1,.6.636l2.164-.271a.752.752,0,0,1,.839.661l.3,2.708h1.205a.751.751,0,0,1,.736.886l-1.5,8.25a.749.749,0,0,1-.7.615l-13.4.6L8.826,16.5H20.251a.75.75,0,0,1,0,1.5Zm-.261-4.63,13.132-.591L22.352,6H6.023ZM20.537,4.5l-.2-1.786-1.863.233L18.165,4.5Zm-3.9,0,.481-2.412-2.254-.451L14.386,4.5Zm-4.144,0-.635-2.117-1.942.432L10.336,4.5Z" transform="translate(0 0)" fill="#fafafa"/>
  </g>
</svg>
