<svg id="Icon_cliente" xmlns="http://www.w3.org/2000/svg" width="15.99" height="15.987" viewBox="0 0 15.99 15.987">
  <path id="Trazado_45794" data-name="Trazado 45794" d="M-1129.49,69.913h-1.245a6.686,6.686,0,0,0-2.519-5.236,6.534,6.534,0,0,0-4.5-1.5,6.781,6.781,0,0,0-6.487,6.725h-1.243a7.865,7.865,0,0,1,1.472-4.611,8.005,8.005,0,0,1,3.89-2.934c-.053-.044-.09-.075-.128-.1a4.561,4.561,0,0,1-1.83-3.209,4.617,4.617,0,0,1,3.231-4.912c.31-.1.637-.138.956-.206h.812c.319.067.646.109.956.206a4.616,4.616,0,0,1,3.23,4.911,4.557,4.557,0,0,1-1.829,3.209c-.038.029-.075.06-.125.1.053.023.085.039.118.052a7.837,7.837,0,0,1,2.791,1.753,7.859,7.859,0,0,1,2.352,4.519c.036.224.063.45.094.674Zm-4.622-11.365a3.391,3.391,0,0,0-3.363-3.372,3.394,3.394,0,0,0-3.38,3.37,3.391,3.391,0,0,0,3.363,3.372A3.394,3.394,0,0,0-1134.112,58.548Z" transform="translate(1145.48 -53.926)" fill="#43398e"/>
</svg>
