<svg xmlns="http://www.w3.org/2000/svg" width="223.69" height="193.329" viewBox="0 0 223.69 193.329">
  <g id="Componente_9_1" data-name="Componente 9 – 1" transform="translate(0.51 0.526)">
    <g id="Grupo_12212" data-name="Grupo 12212" transform="translate(-70.309 -436.547)">
      <path id="Trazado_45500" data-name="Trazado 45500" d="M704.431,509.6A13.42,13.42,0,0,1,695,505.289q-12.872-12.751-25.713-25.528c-18.727-18.612-38.09-37.857-57.279-56.625A61.7,61.7,0,0,1,697.4,334.07c2.5,2.365,4.781,4.9,6.983,7.353l.094.1.051-.058c2.225-2.51,4.525-5.107,7.092-7.507a62.12,62.12,0,0,1,99.07,20.457c10.158,23.188,4.892,49.969-13.416,68.228-16.368,16.326-33.072,32.855-49.226,48.84q-10.545,10.436-21.087,20.876l-3.756,3.725q-4.617,4.579-9.242,9.148a13.626,13.626,0,0,1-9.535,4.36M655.048,327.134A51.685,51.685,0,0,0,618.893,416.1c19.217,18.795,38.6,38.055,57.335,56.68q12.843,12.766,25.7,25.517c1.979,1.961,3.081,1.946,5.124-.068q4.619-4.554,9.221-9.127l3.759-3.728q10.54-10.447,21.092-20.882c16.147-15.978,32.844-32.5,49.2-48.812,15.409-15.371,19.865-37.865,11.348-57.307a52.273,52.273,0,0,0-83.327-17.214c-2.228,2.083-4.277,4.4-6.446,6.844-1.035,1.169-2.072,2.338-3.13,3.484l-1.608,1.744-5.7-.415-1.317-1.416c-1.041-1.119-2.063-2.257-3.086-3.394-2.164-2.41-4.21-4.688-6.418-6.775a51.777,51.777,0,0,0-35.593-14.092" transform="translate(-522.854 119.253)" fill="#3a3180" stroke="#3a3180" stroke-width="1"/>
      <path id="Trazado_45502" data-name="Trazado 45502" d="M-1495.544-411.019c-6.878-10.119-69.407-61.393-102.842,0s107.845,151.831,107.845,151.831l99.421-105.674s3.126-94.419-61.279-74.41S-1488.666-400.9-1495.544-411.019Z" transform="translate(1677.319 882.766)" fill="#3a3180"/>
    </g>
  </g>
</svg>
