<svg id="Icon_negocio" xmlns="http://www.w3.org/2000/svg" xmlns:xlink="http://www.w3.org/1999/xlink" width="16.762" height="17.035" viewBox="0 0 16.762 17.035">
  <defs>
    <clipPath id="clip-path">
      <rect id="Rectángulo_1625" data-name="Rectángulo 1625" width="16.762" height="17.035" fill="#43398e"/>
    </clipPath>
  </defs>
  <g id="Grupo_11917" data-name="Grupo 11917" clip-path="url(#clip-path)">
    <path id="Trazado_45282" data-name="Trazado 45282" d="M1.327,0H15.1a.4.4,0,0,1,.214.414c-.011.282,0,.565,0,.848a.419.419,0,0,0,.035.191c.342.617.692,1.23,1.034,1.848.125.225.235.458.352.687l.021.039c0,.05.006.1.006.149q0,6.346,0,12.692c0,.044,0,.089,0,.133l-.026.029c-.05,0-.1.005-.149.005H.18c-.05,0-.1,0-.149-.005L0,17c0-.039,0-.077,0-.116Q0,10.514,0,4.143c0-.039,0-.077,0-.116l0-.035C.293,3.328.572,2.658.881,2A2.281,2.281,0,0,0,1.163.736c-.016-.131,0-.266,0-.4A.343.343,0,0,1,1.327,0m6.75,1.732a.031.031,0,0,0-.029,0q-1.262,0-2.525-.006c-.085,0-.119.023-.147.11-.134.428-.281.852-.423,1.277l-.209.625H8.088V1.761l-.011-.029m.594.033.012,0V3.741h3.325c-.046-.14-.088-.268-.131-.4q-.269-.791-.539-1.582l-.03-.027H8.714a.031.031,0,0,0-.029,0l-.013.033m2.909,9.2h3.383L15,10.944c0-.1,0-.2.005-.3a.5.5,0,0,0-.523-.53c-.8-.007-1.607,0-2.41,0a.432.432,0,0,0-.448.288,2.985,2.985,0,0,0-.075.543l.034.023m.428-9.229-.029.027c.209.641.417,1.283.633,1.923.011.032.083.063.127.063q1.595,0,3.19,0h.024l-.019-.024c-.088-.165-.175-.331-.266-.495-.261-.469-.522-.939-.789-1.4a.2.2,0,0,0-.146-.09c-.909,0-1.817,0-2.726,0M4.758,1.8l0-.067c-.36,0-.721-.005-1.081,0-.671,0-1.341.005-2.012.008l-.026.023a.343.343,0,0,0-.037.053Q1.3,2.482,1,3.147c-.086.2-.167.393-.256.6H3.53c.193,0,.438.066.566-.027s.15-.346.211-.531c.152-.463.3-.926.451-1.39M14.7.588c-.066,0-.133,0-.2,0H1.766L1.731.6v.526l.034.023h12.9l.033,0,.029,0-.009-.028q0-.263,0-.525a.168.168,0,0,0,.017-.015.079.079,0,0,0-.009-.01L14.7.588m.31,10.995-.018-.03H11.582l-.017.03v4.86h3.447ZM4.042,4.362,4.018,4.34l-3.39,0c-.009,0-.018.011-.034.022,0,.893,0,1.79,0,2.687A1.43,1.43,0,0,0,1.627,8.318a2.726,2.726,0,0,0,1.006.037,1.62,1.62,0,0,0,.932-.43,1.522,1.522,0,0,0,.48-1.154c.011-.8,0-1.606,0-2.41m.593,0c0,.859-.006,1.718,0,2.576a1.381,1.381,0,0,0,.642,1.187,2.1,2.1,0,0,0,1.671.2A1.428,1.428,0,0,0,8.085,6.864c0-.787,0-1.574,0-2.361,0-.053-.005-.106-.008-.163H4.658l-.023.023m8.109-.023-.025.023c0,.859-.007,1.718,0,2.577a1.383,1.383,0,0,0,.642,1.188,2.109,2.109,0,0,0,1.671.2A1.43,1.43,0,0,0,16.17,6.864c0-.787,0-1.574,0-2.361,0-.053-.005-.107-.008-.164Zm-.614,2.878,0-2.855L12.1,4.34l-3.386,0c-.009,0-.019.01-.034.019s-.006.05-.006.077c0,.963-.006,1.926.009,2.889a1.066,1.066,0,0,0,.156.5,1.15,1.15,0,0,0,.9.561l.043-.016,1.218,0,.043-.011a1.114,1.114,0,0,0,1.065-1.1l.019-.04m4.038,1.166-.035-.007a1.8,1.8,0,0,1-1.1.539c-.323.026-.649.036-.973.032a2.01,2.01,0,0,1-1.584-.859c-.023.033-.047.069-.072.1a1.7,1.7,0,0,1-1.42.756c-.443.006-.888.021-1.33-.009A2,2,0,0,1,9,8.748a1.542,1.542,0,0,1-.672-.629c-.021,0-.029,0-.032,0a.714.714,0,0,0-.06.056,1.989,1.989,0,0,1-1.109.7,5.753,5.753,0,0,1-.812.067,2.346,2.346,0,0,1-.874-.083A2.183,2.183,0,0,1,4.3,7.945a.556.556,0,0,0-.058.066,1.985,1.985,0,0,1-1.166.855A3.284,3.284,0,0,1,1.55,8.9a1.583,1.583,0,0,1-.923-.515l-.033,0q0,4,0,8a.42.42,0,0,0,.013.07H10.936l.036-.02c0-.061,0-.122,0-.183q0-2.785,0-5.57a1.477,1.477,0,0,1,.071-.462,1.025,1.025,0,0,1,.855-.671l.137-.022,2.526,0,.071.021a1.048,1.048,0,0,1,.7.383,1.17,1.17,0,0,1,.259.784q0,2.767,0,5.534v.181h.566Z" transform="translate(0)" fill="#43398e"/>
    <path id="Trazado_45283" data-name="Trazado 45283" d="M153.671,122.972l.137-.022-.137.022" transform="translate(-141.766 -113.425)" fill="#43398e"/>
    <path id="Trazado_45284" data-name="Trazado 45284" d="M61.359,22.489l0-.067,0,.067" transform="translate(-56.601 -20.685)" fill="#43398e"/>
    <path id="Trazado_45285" data-name="Trazado 45285" d="M188.044,122.971l.071.021-.071-.021" transform="translate(-173.476 -113.444)" fill="#43398e"/>
    <path id="Trazado_45286" data-name="Trazado 45286" d="M142.023,107.86l.043-.011-.043.011" transform="translate(-131.02 -99.494)" fill="#43398e"/>
    <path id="Trazado_45287" data-name="Trazado 45287" d="M215.993,219.446l-.026.029.026-.029" transform="translate(-199.236 -202.445)" fill="#43398e"/>
    <path id="Trazado_45288" data-name="Trazado 45288" d="M156.253,56.041l-.023-.023.023.023" transform="translate(-144.126 -51.678)" fill="#43398e"/>
    <path id="Trazado_45289" data-name="Trazado 45289" d="M164.193,56.011l-.025.023.025-.023" transform="translate(-151.45 -51.672)" fill="#43398e"/>
    <path id="Trazado_45290" data-name="Trazado 45290" d="M51.894,56.04l-.023-.022.023.022" transform="translate(-47.852 -51.678)" fill="#43398e"/>
    <path id="Trazado_45291" data-name="Trazado 45291" d="M156.319,93.2l.019-.04-.019.04" transform="translate(-144.209 -85.941)" fill="#43398e"/>
    <path id="Trazado_45292" data-name="Trazado 45292" d="M7.709,108.215l-.033,0,.033,0" transform="translate(-7.081 -99.828)" fill="#43398e"/>
    <path id="Trazado_45293" data-name="Trazado 45293" d="M125.743,107.974l.043-.016-.043.016" transform="translate(-116.001 -99.594)" fill="#43398e"/>
    <path id="Trazado_45294" data-name="Trazado 45294" d="M216.014,51.472l.021.039-.021-.039" transform="translate(-199.279 -47.484)" fill="#43398e"/>
    <path id="Trazado_45295" data-name="Trazado 45295" d="M.027,51.561l0-.035,0,.035" transform="translate(-0.022 -47.534)" fill="#43398e"/>
    <path id="Trazado_45296" data-name="Trazado 45296" d="M208.274,108.132l-.035-.007.035.007" transform="translate(-192.106 -99.748)" fill="#43398e"/>
    <path id="Trazado_45297" data-name="Trazado 45297" d="M205.556,48.113l0-.013.01-.009.019.024h-.024" transform="translate(-189.626 -44.365)" fill="#43398e"/>
    <path id="Trazado_45298" data-name="Trazado 45298" d="M154.66,22.423l-.029.027.029-.027" transform="translate(-142.651 -20.686)" fill="#43398e"/>
    <path id="Trazado_45299" data-name="Trazado 45299" d="M146,22.45l-.03-.027.03.027" transform="translate(-134.661 -20.686)" fill="#43398e"/>
    <path id="Trazado_45300" data-name="Trazado 45300" d="M111.976,22.345l-.03.025-.012,0,.013-.033a.031.031,0,0,1,.029,0" transform="translate(-103.262 -20.608)" fill="#43398e"/>
    <path id="Trazado_45301" data-name="Trazado 45301" d="M111.947,22.362l-.013.033.013-.033" transform="translate(-103.262 -20.63)" fill="#43398e"/>
    <path id="Trazado_45302" data-name="Trazado 45302" d="M104.246,22.363l.011.029-.012,0v-.033" transform="translate(-96.169 -20.631)" fill="#43398e"/>
    <path id="Trazado_45303" data-name="Trazado 45303" d="M103.912,22.341v.033l-.028-.028a.031.031,0,0,1,.029,0" transform="translate(-95.835 -20.609)" fill="#43398e"/>
    <path id="Trazado_45304" data-name="Trazado 45304" d="M21.123,22.465l-.026.023.026-.023" transform="translate(-19.463 -20.725)" fill="#43398e"/>
    <path id="Trazado_45305" data-name="Trazado 45305" d="M149.041,141.262l.034.023-.034-.023" transform="translate(-137.494 -130.318)" fill="#43398e"/>
    <path id="Trazado_45306" data-name="Trazado 45306" d="M193.151,141.285l.034-.022-.034.022" transform="translate(-178.187 -130.319)" fill="#43398e"/>
    <path id="Trazado_45307" data-name="Trazado 45307" d="M189.7,14.539l.02-.025.009.028-.029,0" transform="translate(-174.999 -13.39)" fill="#43398e"/>
    <path id="Trazado_45308" data-name="Trazado 45308" d="M149.3,149.115l-.017.03.017-.03" transform="translate(-137.72 -137.563)" fill="#43398e"/>
    <path id="Trazado_45309" data-name="Trazado 45309" d="M22.346,14.568l.034.023-.034-.023" transform="translate(-20.615 -13.439)" fill="#43398e"/>
    <path id="Trazado_45310" data-name="Trazado 45310" d="M189.769,7.414l.017-.015a.079.079,0,0,1,.009.01.178.178,0,0,1-.017.015h-.01Z" transform="translate(-175.066 -6.826)" fill="#43398e"/>
    <path id="Trazado_45311" data-name="Trazado 45311" d="M22.375,7.518l-.036.02.036-.02" transform="translate(-20.608 -6.936)" fill="#43398e"/>
    <path id="Trazado_45312" data-name="Trazado 45312" d="M141.166,212.138l.036-.02-.036.02" transform="translate(-130.23 -195.685)" fill="#43398e"/>
    <path id="Trazado_45313" data-name="Trazado 45313" d="M.081,219.475l-.026-.029.026.029" transform="translate(-0.051 -202.445)" fill="#43398e"/>
    <path id="Trazado_45314" data-name="Trazado 45314" d="M59.848,56.019l-.023.023.023-.023" transform="translate(-55.19 -51.679)" fill="#43398e"/>
    <path id="Trazado_45315" data-name="Trazado 45315" d="M19.53,122.9q1.813,0,3.625,0,1.68,0,3.359,0l.071.022a.8.8,0,0,1,.73.669c.014.163.032.327.033.49q0,2.487,0,4.973v.192H18.684q0-.1,0-.193c0-1.774.009-3.548,0-5.322a.836.836,0,0,1,.736-.811l.107-.02m-.229,1.44,7.393,0a.345.345,0,0,0,.049-.007l.018-.02q0-.261.006-.522l-.014-.042c-.034-.19-.108-.26-.289-.264-.1,0-.2,0-.3,0H19.917c-.582,0-.677-.09-.655.665,0,.055,0,.111.005.166l.034.022m7.464.62-.022-.031c-.061,0-.122,0-.183,0H19.479c-.061,0-.122,0-.182.005l-.027.025c0,.26-.006.521-.006.781q0,1.455.006,2.91l.025.025c.061,0,.122.006.182.006h5.787c.493,0,.986,0,1.48,0l.022-.033q0-1.84,0-3.68" transform="translate(-17.236 -113.373)" fill="#43398e"/>
    <path id="Trazado_45316" data-name="Trazado 45316" d="M28.329,122.946l-.107.021.107-.021" transform="translate(-26.036 -113.421)" fill="#43398e"/>
    <path id="Trazado_45317" data-name="Trazado 45317" d="M119.832,122.972l-.071-.022.071.022" transform="translate(-110.483 -113.425)" fill="#43398e"/>
    <path id="Trazado_45318" data-name="Trazado 45318" d="M156.656,156.456h2.224l.036.023c0,.155.009.309.009.464q0,1.537,0,3.074v.191h-2.3c0-.033-.01-.07-.01-.107q0-1.761,0-3.522c0-.033.005-.066.008-.1l.035-.024m1.685,3.149q0-1.263,0-2.525l-.026-.03h-1.1l-.025.031q0,1.262,0,2.524l.025.028h1.094l.025-.027" transform="translate(-144.479 -144.335)" fill="#43398e"/>
    <path id="Trazado_45319" data-name="Trazado 45319" d="M156.759,156.456l-.035.024.035-.024" transform="translate(-144.582 -144.335)" fill="#43398e"/>
    <path id="Trazado_45320" data-name="Trazado 45320" d="M185.921,156.479l-.036-.023.036.023" transform="translate(-171.484 -144.335)" fill="#43398e"/>
    <path id="Trazado_45321" data-name="Trazado 45321" d="M122.841,133.994l-.014-.042.014.042" transform="translate(-113.311 -123.575)" fill="#43398e"/>
    <path id="Trazado_45322" data-name="Trazado 45322" d="M26.219,141.258l.034.022-.034-.022" transform="translate(-24.188 -130.315)" fill="#43398e"/>
    <path id="Trazado_45323" data-name="Trazado 45323" d="M122.709,141.245l.018-.02-.018.02" transform="translate(-113.202 -130.284)" fill="#43398e"/>
    <path id="Trazado_45324" data-name="Trazado 45324" d="M26.286,149.158l-.027.025.027-.025" transform="translate(-24.225 -137.603)" fill="#43398e"/>
    <path id="Trazado_45325" data-name="Trazado 45325" d="M122.734,149.177l-.022-.031.022.031" transform="translate(-113.205 -137.591)" fill="#43398e"/>
    <path id="Trazado_45326" data-name="Trazado 45326" d="M26.262,197.122l.025.025-.025-.025" transform="translate(-24.227 -181.851)" fill="#43398e"/>
    <path id="Trazado_45327" data-name="Trazado 45327" d="M122.729,197.076l.022-.033-.022.033" transform="translate(-113.221 -181.778)" fill="#43398e"/>
    <path id="Trazado_45328" data-name="Trazado 45328" d="M164.159,164.116l-.025.031.025-.031" transform="translate(-151.418 -151.402)" fill="#43398e"/>
    <path id="Trazado_45329" data-name="Trazado 45329" d="M178.627,164.147l-.026-.03.026.03" transform="translate(-164.764 -151.403)" fill="#43398e"/>
    <path id="Trazado_45330" data-name="Trazado 45330" d="M164.15,197.1l.025.028-.025-.028" transform="translate(-151.433 -181.829)" fill="#43398e"/>
    <path id="Trazado_45331" data-name="Trazado 45331" d="M178.594,197.134l.025-.027-.025.027" transform="translate(-164.758 -181.837)" fill="#43398e"/>
  </g>
</svg>
