<svg id="Icono_información" xmlns="http://www.w3.org/2000/svg" xmlns:xlink="http://www.w3.org/1999/xlink" width="550.788" height="550.712" viewBox="0 0 550.788 550.712">
  <defs>
    <clipPath id="clip-path">
      <rect id="Rectángulo_1804" data-name="Rectángulo 1804" width="550.788" height="550.712" fill="#38c5a6"/>
    </clipPath>
  </defs>
  <g id="Grupo_12200" data-name="Grupo 12200" clip-path="url(#clip-path)">
    <path id="Trazado_45498" data-name="Trazado 45498" d="M292.795,550.711H260.5c-3.7-.435-7.409-.9-11.12-1.3-45.137-4.964-86.966-19.4-124.536-44.985C59.513,459.933,18.76,399.013,4.276,321.021,2.389,310.851,1.4,300.513,0,290.251V257.964c.435-3.711.9-7.419,1.31-11.133,6.052-54.733,25.806-103.99,61.539-145.9C126.114,26.743,206.98-7.009,304.234,1.208,357.9,5.743,406.324,25.664,447.87,60.037c75.8,62.719,109.834,143.788,101.753,241.792-3.717,45.07-18.955,86.739-44.244,124.29C461.5,491.268,401.14,531.99,323.587,546.423c-10.177,1.893-20.524,2.881-30.792,4.288m-48.441-210.95v14.528c0,22.063-.17,44.13.051,66.19.24,23.654,21.521,38.882,43.3,31.252,13.159-4.607,21.2-16.721,21.224-32.332q.08-54.617.016-109.238c0-17.04.107-34.083-.035-51.119-.123-14.749-8.425-26.781-21.205-31.256-21.779-7.627-43.092,7.6-43.291,31.256-.227,26.9-.054,53.811-.057,80.718m32.477-243.2a32.247,32.247,0,1,0,32.07,32.429,32.563,32.563,0,0,0-32.07-32.429" transform="translate(0 0)" fill="#38c5a6"/>
  </g>
</svg>
