<svg id="Icono_eliminar" xmlns="http://www.w3.org/2000/svg" xmlns:xlink="http://www.w3.org/1999/xlink" width="116.74" height="155.613" viewBox="0 0 116.74 155.613">
  <defs>
    <clipPath id="clip-path">
      <rect id="Rectángulo_1790" data-name="Rectángulo 1790" width="116.74" height="155.613" fill="#3a3180"/>
    </clipPath>
  </defs>
  <g id="Grupo_12169" data-name="Grupo 12169" clip-path="url(#clip-path)">
    <path id="Trazado_45480" data-name="Trazado 45480" d="M58.166,37.533q22.342,0,44.685.005c3.81,0,6.159,1.544,6.929,4.554a10.039,10.039,0,0,1,.231,2.457c.01,27.895.059,55.789-.012,83.683A25.747,25.747,0,0,1,83.86,154.266q-25.712.059-51.423,0A25.77,25.77,0,0,1,6.315,128.214Q6.228,86.461,6.3,44.708c0-4.869,2.291-7.164,7.18-7.169q22.341-.025,44.684-.006M19.293,50.659c-.031.664-.081,1.239-.081,1.815q-.006,37.5,0,75c0,8.369,5.527,13.876,13.9,13.884q25.005.019,50.008,0c8.48-.005,13.976-5.5,13.979-13.988q.016-37.412,0-74.823V50.659Z" transform="translate(0.22 1.317)" fill="#3a3180"/>
    <path id="Trazado_45481" data-name="Trazado 45481" d="M32.338,12.92c.84-6.882,4.39-11.247,10.179-12.579A16.8,16.8,0,0,1,46.21.021Q58.357-.02,70.5.009C78.445.021,83.568,4.7,84.385,12.92h1.84c7.92,0,15.841-.028,23.761.012,4.749.024,7.418,3.283,6.609,7.938a5.654,5.654,0,0,1-4.58,4.8,16.112,16.112,0,0,1-3.166.267q-50.45.02-100.9.01c-.532,0-1.065.013-1.6-.019C2.374,25.7-.059,23.167,0,19.332c.06-3.852,2.554-6.367,6.545-6.394,7.92-.054,15.841-.018,23.761-.019h2.031" transform="translate(0 0)" fill="#3a3180"/>
    <path id="Trazado_45482" data-name="Trazado 45482" d="M37.582,95c0-8.509-.021-17.02.009-25.53.017-4.843,3.325-7.568,8.041-6.662a5.563,5.563,0,0,1,4.69,4.483,12.6,12.6,0,0,1,.272,2.812q.023,24.909.009,49.821a15.3,15.3,0,0,1-.059,1.771c-.453,3.817-2.994,5.905-6.952,5.733a5.986,5.986,0,0,1-5.982-6.188c-.094-3.425-.028-6.855-.029-10.284q0-7.977,0-15.957" transform="translate(1.318 2.198)" fill="#3a3180"/>
    <path id="Trazado_45483" data-name="Trazado 45483" d="M75.661,95.274c0,8.511.033,17.021-.014,25.532-.026,4.675-3.449,7.4-8.037,6.538-2.987-.565-4.9-2.976-4.953-6.443-.061-4.136-.018-8.275-.018-12.412q0-18.972,0-37.943c0-.591-.02-1.184.024-1.772.285-3.857,2.835-6.214,6.621-6.136s6.265,2.509,6.357,6.4c.074,3.071.02,6.146.021,9.22q0,8.51,0,17.021" transform="translate(2.197 2.198)" fill="#3a3180"/>
  </g>
</svg>
