<svg id="Icono_Todos" xmlns="http://www.w3.org/2000/svg" xmlns:xlink="http://www.w3.org/1999/xlink" width="21.803" height="22.069" viewBox="0 0 21.803 22.069">
  <defs>
    <clipPath id="clip-path">
      <rect id="Rectángulo_1786" data-name="Rectángulo 1786" width="21.803" height="22.069" fill="#3a3180" stroke="#3a3180" stroke-width="0.25"/>
    </clipPath>
  </defs>
  <g id="Grupo_12152" data-name="Grupo 12152" clip-path="url(#clip-path)">
    <path id="Trazado_45400" data-name="Trazado 45400" d="M7.078,10.257H2.92A2.9,2.9,0,0,1,0,7.389V2.868A2.9,2.9,0,0,1,2.92,0H7.078A2.9,2.9,0,0,1,10,2.868V7.389a2.9,2.9,0,0,1-2.92,2.868M2.92,1.215A1.67,1.67,0,0,0,1.237,2.868V7.389A1.67,1.67,0,0,0,2.92,9.042H7.078A1.67,1.67,0,0,0,8.761,7.389V2.868A1.67,1.67,0,0,0,7.078,1.215Z" fill="#3a3180" stroke="#3a3180" stroke-width="0.25"/>
    <path id="Trazado_45401" data-name="Trazado 45401" d="M178.8,10.257H174.64a2.9,2.9,0,0,1-2.92-2.868V2.868A2.9,2.9,0,0,1,174.64,0H178.8a2.9,2.9,0,0,1,2.92,2.868V7.389a2.9,2.9,0,0,1-2.92,2.868M174.64,1.215a1.67,1.67,0,0,0-1.683,1.653V7.389a1.67,1.67,0,0,0,1.683,1.653H178.8a1.67,1.67,0,0,0,1.683-1.653V2.868A1.67,1.67,0,0,0,178.8,1.215Z" transform="translate(-159.915)" fill="#3a3180" stroke="#3a3180" stroke-width="0.25"/>
    <path id="Trazado_45402" data-name="Trazado 45402" d="M7.078,185.217H2.92A2.9,2.9,0,0,1,0,182.349v-4.521a2.9,2.9,0,0,1,2.92-2.868H7.078A2.9,2.9,0,0,1,10,177.828v4.521a2.9,2.9,0,0,1-2.92,2.868M2.92,176.175a1.67,1.67,0,0,0-1.683,1.653v4.521A1.67,1.67,0,0,0,2.92,184H7.078a1.67,1.67,0,0,0,1.683-1.653v-4.521a1.67,1.67,0,0,0-1.683-1.653Z" transform="translate(0 -163.148)" fill="#3a3180" stroke="#3a3180" stroke-width="0.25"/>
    <path id="Trazado_45403" data-name="Trazado 45403" d="M178.8,185.217H174.64a2.9,2.9,0,0,1-2.92-2.868v-4.521a2.9,2.9,0,0,1,2.92-2.868H178.8a2.9,2.9,0,0,1,2.92,2.868v4.521a2.9,2.9,0,0,1-2.92,2.868m-4.158-9.042a1.67,1.67,0,0,0-1.683,1.653v4.521A1.67,1.67,0,0,0,174.64,184H178.8a1.67,1.67,0,0,0,1.683-1.653v-4.521a1.67,1.67,0,0,0-1.683-1.653Z" transform="translate(-159.915 -163.148)" fill="#3a3180" stroke="#3a3180" stroke-width="0.25"/>
  </g>
</svg>
