<svg xmlns="http://www.w3.org/2000/svg" width="42" height="42" viewBox="0 0 42 42">
  <g id="confimarcion_correo_img" transform="translate(-317 -1203)">
    <circle id="Elipse_45" data-name="Elipse 45" cx="21" cy="21" r="21" transform="translate(317 1203)" fill="#43398e"/>
    <g id="Grupo_5140" data-name="Grupo 5140" transform="translate(-3738.937 -2432.232)">
      <g id="Grupo_5139" data-name="Grupo 5139" transform="translate(4067.475 3641.232)">
        <path id="Trazado_38381" data-name="Trazado 38381" d="M4069.195,3668.118a.585.585,0,0,1-.215-.6,10.343,10.343,0,0,1,1.792-4.949c.134-.181.284-.351.439-.542a4.277,4.277,0,0,1-2.258-4.271c-.085-.033-.147-.059-.21-.081a1.826,1.826,0,0,1-.739-3.024.394.394,0,0,0,.111-.37,24.583,24.583,0,0,1-.339-4.625,4.824,4.824,0,0,1,.686-2.313,3.6,3.6,0,0,1,2.438-1.585,17.386,17.386,0,0,1,4.536-.395,8.485,8.485,0,0,1,3.458.867.984.984,0,0,0,.115.043c.088-.4.164-.8.261-1.183a3.587,3.587,0,0,1,.205-.566.392.392,0,0,1,.533-.239.4.4,0,0,1,.193.535,9.966,9.966,0,0,0-.3,1.028,4.654,4.654,0,1,0,5.376-3.766,4.536,4.536,0,0,0-3.976,1.183c-.045.041-.086.088-.132.128a.395.395,0,1,1-.546-.564,5.214,5.214,0,0,1,2.774-1.5,5.445,5.445,0,1,1,1.943,10.712c-.362.052-.729.064-1.09.095-.169.734-.343,1.473-.5,2.214a.292.292,0,0,0,.091.214,1.828,1.828,0,0,1-.684,3.108c-.161.057-.177.144-.193.285a10.4,10.4,0,0,1-.238,1.705,3.8,3.8,0,0,1-1.781,2.22l-.244.146a7.3,7.3,0,0,1,1.346,2.09c.087.2.167.4.241.609a.4.4,0,1,1-.733.276,7.26,7.26,0,0,0-1.2-2.17c-.111-.134-.235-.259-.369-.406l-.913.96c-.29.3-.576.612-.87.912a.4.4,0,0,1-.64.007c-.331-.325-.653-.659-.98-.989-.059-.06-.122-.115-.215-.2v4.191h3.075v-1.165c0-.167,0-.333,0-.5,0-.3.155-.479.4-.474s.381.176.382.467c0,.55,0,1.1,0,1.67h1.882c-.029-.174-.06-.344-.085-.514a.4.4,0,0,1,.315-.5.391.391,0,0,1,.459.357c.052.284.081.572.139.854a.515.515,0,0,1-.244.6Zm6.766-6.363c1.034-.032,2.075-.051,3.115-.1a3.2,3.2,0,0,0,3.034-2.862c.094-1.3.057-2.6.071-3.907a.291.291,0,0,0-.115-.208,2.691,2.691,0,0,1-.957-1.191c-.145-.336-.26-.685-.382-1.031a1.478,1.478,0,0,0-1.161-1.023,1.614,1.614,0,0,0-1.377.425,3.466,3.466,0,0,1-3.009.706,3.912,3.912,0,0,1-1.619-.825,1.494,1.494,0,0,0-2.368.715c-.034.1-.065.2-.1.3a3.424,3.424,0,0,1-1.284,1.955.3.3,0,0,0-.084.222c.01,1.216,0,2.433.048,3.648a3.251,3.251,0,0,0,3.082,3.08C4073.888,3661.7,4074.921,3661.723,4075.96,3661.755Zm-7.072-7.635a.935.935,0,0,0,.941-.526,8.213,8.213,0,0,0,.587-1.336,2.307,2.307,0,0,1,3.679-1.11,3.892,3.892,0,0,0,.513.363,2.735,2.735,0,0,0,3.076-.257,2.469,2.469,0,0,1,1.413-.627,2.306,2.306,0,0,1,2.41,1.668,7.424,7.424,0,0,0,.57,1.287.9.9,0,0,0,.93.521c.147-.679.3-1.367.446-2.057-.07-.027-.1-.042-.133-.05a5.38,5.38,0,0,1-4.221-4.5.547.547,0,0,0-.28-.4,7.107,7.107,0,0,0-3.246-.933,15.941,15.941,0,0,0-4.383.339,2.912,2.912,0,0,0-2.58,2.788A19.9,19.9,0,0,0,4068.888,3654.12Zm3.043,8.309a8.585,8.585,0,0,0-2.127,4.879h1.879c0-.3,0-.581,0-.861s-.008-.578,0-.866a.39.39,0,1,1,.78,0c.007.114,0,.228,0,.342v1.394h3.062v-4.151c-.376.366-.742.718-1.1,1.074-.31.3-.49.305-.789-.009Zm2.042,1,.972-.932h-1.861Zm4.853-.931h-1.873l.978.946Zm-9.9-5.613v-1.924a1.053,1.053,0,0,0-.656.931A1.021,1.021,0,0,0,4068.922,3656.889Zm14.091-1.922v1.934a1.056,1.056,0,0,0,0-1.934Z" transform="translate(-4067.475 -3641.232)" fill="#fff"/>
        <path id="Trazado_38382" data-name="Trazado 38382" d="M4304.453,3761.487a.414.414,0,0,1-.414-.387.4.4,0,0,1,.809-.018A.414.414,0,0,1,4304.453,3761.487Z" transform="translate(-4287.439 -3752.305)" fill="#fff"/>
        <path id="Trazado_38383" data-name="Trazado 38383" d="M4165.19,3876.2a1.831,1.831,0,0,1-1.514-.977.41.41,0,0,1,.1-.6c.212-.132.419-.059.584.205a1.1,1.1,0,0,0,1.944,0c.159-.254.355-.329.564-.214s.262.344.117.61A1.951,1.951,0,0,1,4165.19,3876.2Z" transform="translate(-4156.848 -3858.184)" fill="#fff"/>
        <path id="Trazado_38384" data-name="Trazado 38384" d="M4222.668,3831.618a4.042,4.042,0,0,1,.322-.7.426.426,0,0,1,.7-.009,1.181,1.181,0,0,1,0,1.433.425.425,0,0,1-.7,0A4.1,4.1,0,0,1,4222.668,3831.618Z" transform="translate(-4211.778 -3817.435)" fill="#fff"/>
        <path id="Trazado_38385" data-name="Trazado 38385" d="M4135.189,3831.637a3.669,3.669,0,0,1,.276-.665.444.444,0,0,1,.768-.007,1.2,1.2,0,0,1,0,1.354.444.444,0,0,1-.769,0A3.659,3.659,0,0,1,4135.189,3831.637Z" transform="translate(-4130.438 -3817.448)" fill="#fff"/>
      </g>
      <rect id="Rectángulo_1385" data-name="Rectángulo 1385" width="1.074" height="4.873" rx="0.537" transform="translate(4083.94 3644.143)" fill="#fff"/>
    </g>
  </g>
</svg>
