<svg id="Icon_ubicación_negocio" xmlns="http://www.w3.org/2000/svg" xmlns:xlink="http://www.w3.org/1999/xlink" width="16.16" height="19.464" viewBox="0 0 16.16 19.464">
  <defs>
    <clipPath id="clip-path">
      <rect id="Rectángulo_1626" data-name="Rectángulo 1626" width="16.16" height="19.464" fill="#43398e" stroke="#43398e" stroke-width="0.25"/>
    </clipPath>
  </defs>
  <g id="Grupo_11921" data-name="Grupo 11921" clip-path="url(#clip-path)">
    <path id="Trazado_45332" data-name="Trazado 45332" d="M8.02,0a8.326,8.326,0,0,1,3.974,1.028,8.006,8.006,0,0,1,2.42,2.055A7.731,7.731,0,0,1,15.9,6.09c.1.425.147.864.21,1.3a4.349,4.349,0,0,1,.045.543,8.015,8.015,0,0,1-.977,4.03,7.428,7.428,0,0,1-1.272,1.722Q11.1,16.5,8.289,19.3c-.214.214-.214.214-.436-.007C6.032,17.475,4.2,15.661,2.391,13.83A7.85,7.85,0,0,1,.177,9.69,8.385,8.385,0,0,1,0,7.9,8.133,8.133,0,0,1,4.782.716a6.663,6.663,0,0,1,2.113-.6C7.27.082,7.645.039,8.02,0M8.1,18.387c.068-.064.127-.118.183-.174q2.3-2.3,4.6-4.6c.324-.326.634-.67.928-1.024A6.889,6.889,0,0,0,15.353,8.72a6.914,6.914,0,0,0-.176-2.367,7.11,7.11,0,0,0-1.814-3.282,9.733,9.733,0,0,0-1.381-1.118A6.633,6.633,0,0,0,8.689.836,10.538,10.538,0,0,0,7.173.873a6.07,6.07,0,0,0-2.241.635A7.343,7.343,0,0,0,2.415,3.516,7.217,7.217,0,0,0,1.188,5.732,7.709,7.709,0,0,0,.819,7.476a6.7,6.7,0,0,0,.075,1.87A8.289,8.289,0,0,0,1.323,10.8a5.8,5.8,0,0,0,1.261,2.067c1.762,1.8,3.551,3.567,5.33,5.347.056.056.115.109.183.174" transform="translate(0)" fill="#43398e" stroke="#43398e" stroke-width="0.25"/>
    <path id="Trazado_45333" data-name="Trazado 45333" d="M41.383,35.867a3.863,3.863,0,0,1,3.9,3.457,3.918,3.918,0,1,1-7.8.17,3.854,3.854,0,0,1,3.907-3.627m-.046,7a3.121,3.121,0,1,0,.06-6.241,3.121,3.121,0,1,0-.06,6.241" transform="translate(-33.278 -31.851)" fill="#43398e" stroke="#43398e" stroke-width="0.25"/>
    <path id="Trazado_45334" data-name="Trazado 45334" d="M85.2,22.593c-.048.365-.124.506-.337.541a.4.4,0,0,1-.5-.445,3.727,3.727,0,0,0-.632-2.121A4.9,4.9,0,0,0,81.6,18.783a5.58,5.58,0,0,0-1.408-.349A.391.391,0,0,1,79.877,18a.349.349,0,0,1,.392-.31,4.56,4.56,0,0,1,2.546.881,5.032,5.032,0,0,1,2.091,2.679,12.84,12.84,0,0,1,.29,1.346" transform="translate(-70.938 -15.707)" fill="#43398e" stroke="#43398e" stroke-width="0.25"/>
  </g>
</svg>
